# Aspose.3D Wavefront OBJ Exporter
# Copyright 2004-2024 Aspose Pty Ltd.
# File created: 03/15/2025 17:53:51

mtllib material.lib
g Layer.1

#
# object Layer.1
#

v 1 0 -1
v 0 0 -1
v 0 1 -1
v 1 1 -1
v 0 0 0
v 0 0 -1
v 1 0 -1
v 1 0 0
v 1 0 0
v 1 0 -1
v 1 1 -1
v 1 1 0
v 2 1 -1
v 1 2 -1
v 2 2 -1
v 1 1 0
v 1 1 -1
v 2 1 -1
v 2 1 0
v 2 1 0
v 2 1 -1
v 2 2 -1
v 2 2 0
v 1 1 -2
v 0 1 -2
v 0 2 -2
v 1 2 -2
v 0 1 -1
v 0 1 -2
v 1 1 -2
v 1 1 -2
v 1 2 -2
v 1 2 -1
v 1 3 -1
v 2 3 -1
v 2 3 -1
v 2 3 0
v 0 3 -2
v 1 3 -2
v 1 3 -2
v 1 3 -1
v 1 4 0
v 1 4 -1
v 0 4 -1
v 0 4 0
v 1 4 -1
v 2 4 -1
v 2 4 -1
v 2 4 0
v 0 4 -2
v 1 4 -2
v 1 4 -2
v 1 4 -1
v 1 5 -1
v 2 5 -1
v 2 5 0
v 2 5 -1
v 1 5 -1
v 1 5 0
v 2 5 -1
v 2 5 0
v 1 4 0
v 1 5 0
v 1 5 -1
v 1 4 -1
v 0 4 -1
v 1 4 -1
v 1 5 -1
v 0 5 -1
v 0 5 -2
v 1 5 -2
v 1 5 -2
v 0 5 -2
v 0 5 -1
v 1 5 -2
v 1 5 -1
v 0 0 1
v 1 0 1
v 1 1 1
v 0 1 1
v 0 0 1
v 1 0 1
v 1 0 1
v 1 1 1
v 0 1 2
v 1 1 2
v 1 2 2
v 0 2 2
v 0 1 2
v 0 1 1
v 1 1 1
v 1 1 2
v 1 1 2
v 1 2 1
v 1 2 2
v 2 1 1
v 2 2 1
v 1 2 1
v 2 1 1
v 2 1 1
v 2 2 1
v 1 3 2
v 0 3 2
v 1 3 1
v 1 3 2
v 2 3 1
v 1 3 1
v 2 3 1
v 1 4 2
v 0 4 2
v 1 4 1
v 1 4 2
v 1 4 1
v 0 4 1
v 2 4 1
v 1 4 1
v 2 4 1
v 1 5 2
v 0 5 2
v 1 4 1
v 0 4 1
v 0 5 1
v 1 5 1
v 1 5 2
v 1 5 1
v 0 5 1
v 0 5 2
v 1 5 1
v 1 5 2
v 2 5 1
v 1 5 1
v 2 5 1
v 2 5 1
v 1 4 1
v 1 5 1
v -1 0 -1
v -1 1 -1
v -1 0 0
v -1 0 -1
v -1 0 0
v -1 1 0
v -1 1 -1
v -1 0 -1
v -2 1 -1
v -2 2 -1
v -1 2 -1
v -2 1 0
v -2 1 -1
v -1 1 -1
v -1 1 0
v -2 1 0
v -2 2 0
v -2 2 -1
v -2 1 -1
v -1 1 -2
v -1 2 -2
v -1 1 -2
v -1 2 -1
v -1 2 -2
v -1 1 -2
v -2 3 -1
v -1 3 -1
v -2 3 0
v -2 3 -1
v -1 3 -2
v -1 3 -1
v -1 3 -2
v -2 4 -1
v -1 4 -1
v -2 4 0
v -2 4 -1
v -1 4 -1
v -1 4 0
v -1 4 -2
v -1 4 -1
v -1 4 -2
v -2 5 -1
v -1 5 -1
v -1 5 0
v -1 5 -1
v -2 5 -1
v -2 5 0
v -1 4 0
v -1 4 -1
v -1 5 -1
v -1 5 0
v -2 5 0
v -2 5 -1
v -1 4 -1
v -1 5 -1
v -1 5 -2
v -1 5 -2
v -1 5 -1
v -1 5 -2
v -1 0 1
v -1 1 1
v -1 0 1
v -1 0 1
v -1 1 1
v -1 1 2
v -1 2 2
v -1 1 2
v -1 1 1
v -1 1 2
v -1 2 2
v -1 2 1
v -2 1 1
v -1 2 1
v -2 2 1
v -2 1 1
v -2 1 1
v -2 2 1
v -1 3 2
v -1 3 2
v -1 3 1
v -1 3 1
v -2 3 1
v -2 3 1
v -1 4 2
v -1 4 2
v -1 4 1
v -1 4 1
v -2 4 1
v -2 4 1
v -1 4 1
v -1 5 2
v -1 4 1
v -1 5 1
v -1 5 1
v -1 5 2
v -1 5 2
v -1 5 1
v -1 5 1
v -2 5 1
v -2 5 1
v -1 4 1
v -1 5 1
v -2 5 1
# 238 vertices

vn 0 2.220446E-16 -1
vn 0 2.220446E-16 -1
vn 0 2.220446E-16 -1
vn 0 2.220446E-16 -1
vn 0 -1 -2.220446E-16
vn 0 -1 -2.220446E-16
vn 0 -1 -2.220446E-16
vn 0 -1 -2.220446E-16
vn 1 0 0
vn 1 0 0
vn 1 0 0
vn 1 0 0
vn 0 2.220446E-16 -1
vn 0 2.220446E-16 -1
vn 0 2.220446E-16 -1
vn 0 -1 -2.220446E-16
vn 0 -1 -2.220446E-16
vn 0 -1 -2.220446E-16
vn 0 -1 -2.220446E-16
vn 1 0 0
vn 1 0 0
vn 1 0 0
vn 1 0 0
vn 0 2.220446E-16 -1
vn 0 2.220446E-16 -1
vn 0 2.220446E-16 -1
vn 0 2.220446E-16 -1
vn 0 -1 -2.220446E-16
vn 0 -1 -2.220446E-16
vn 0 -1 -2.220446E-16
vn 1 0 0
vn 1 0 0
vn 1 0 0
vn 0 2.220446E-16 -1
vn 0 2.220446E-16 -1
vn 1 0 0
vn 1 0 0
vn 0 2.220446E-16 -1
vn 0 2.220446E-16 -1
vn 1 0 0
vn 1 0 0
vn 0 1 2.220446E-16
vn 0 1 2.220446E-16
vn 0 1 2.220446E-16
vn 0 1 2.220446E-16
vn 0 2.220446E-16 -1
vn 0 2.220446E-16 -1
vn 1 0 0
vn 1 0 0
vn 0 2.220446E-16 -1
vn 0 2.220446E-16 -1
vn 1 0 0
vn 1 0 0
vn 0 2.220446E-16 -1
vn 0 2.220446E-16 -1
vn 0 1 2.220446E-16
vn 0 1 2.220446E-16
vn 0 1 2.220446E-16
vn 0 1 2.220446E-16
vn 1 0 0
vn 1 0 0
vn -1 0 0
vn -1 0 0
vn -1 0 0
vn -1 0 0
vn 0 -2.220446E-16 1
vn 0 -2.220446E-16 1
vn 0 -2.220446E-16 1
vn 0 -2.220446E-16 1
vn 0 2.220446E-16 -1
vn 0 2.220446E-16 -1
vn 0 1 2.220446E-16
vn 0 1 2.220446E-16
vn 0 1 2.220446E-16
vn 1 0 0
vn 1 0 0
vn 0 -2.220446E-16 1
vn 0 -2.220446E-16 1
vn 0 -2.220446E-16 1
vn 0 -2.220446E-16 1
vn 0 -1 -2.220446E-16
vn 0 -1 -2.220446E-16
vn 1 0 0
vn 1 0 0
vn 0 -2.220446E-16 1
vn 0 -2.220446E-16 1
vn 0 -2.220446E-16 1
vn 0 -2.220446E-16 1
vn 0 -1 -2.220446E-16
vn 0 -1 -2.220446E-16
vn 0 -1 -2.220446E-16
vn 0 -1 -2.220446E-16
vn 1 0 0
vn 1 0 0
vn 1 0 0
vn 0 -2.220446E-16 1
vn 0 -2.220446E-16 1
vn 0 -2.220446E-16 1
vn 0 -1 -2.220446E-16
vn 1 0 0
vn 1 0 0
vn 0 -2.220446E-16 1
vn 0 -2.220446E-16 1
vn 1 0 0
vn 1 0 0
vn 0 -2.220446E-16 1
vn 0 -2.220446E-16 1
vn 1 0 0
vn 0 -2.220446E-16 1
vn 0 -2.220446E-16 1
vn 1 0 0
vn 1 0 0
vn 0 1 2.220446E-16
vn 0 1 2.220446E-16
vn 0 -2.220446E-16 1
vn 0 -2.220446E-16 1
vn 1 0 0
vn 0 -2.220446E-16 1
vn 0 -2.220446E-16 1
vn 0 2.220446E-16 -1
vn 0 2.220446E-16 -1
vn 0 2.220446E-16 -1
vn 0 2.220446E-16 -1
vn 0 1 2.220446E-16
vn 0 1 2.220446E-16
vn 0 1 2.220446E-16
vn 0 1 2.220446E-16
vn 1 0 0
vn 1 0 0
vn 0 -2.220446E-16 1
vn 0 -2.220446E-16 1
vn 0 1 2.220446E-16
vn 1 0 0
vn -1 0 0
vn -1 0 0
vn 0 2.220446E-16 -1
vn 0 2.220446E-16 -1
vn 0 -1 -2.220446E-16
vn 0 -1 -2.220446E-16
vn -1 0 0
vn -1 0 0
vn -1 0 0
vn -1 0 0
vn 0 2.220446E-16 -1
vn 0 2.220446E-16 -1
vn 0 2.220446E-16 -1
vn 0 -1 -2.220446E-16
vn 0 -1 -2.220446E-16
vn 0 -1 -2.220446E-16
vn 0 -1 -2.220446E-16
vn -1 0 0
vn -1 0 0
vn -1 0 0
vn -1 0 0
vn 0 2.220446E-16 -1
vn 0 2.220446E-16 -1
vn 0 -1 -2.220446E-16
vn -1 0 0
vn -1 0 0
vn -1 0 0
vn 0 2.220446E-16 -1
vn 0 2.220446E-16 -1
vn -1 0 0
vn -1 0 0
vn 0 2.220446E-16 -1
vn -1 0 0
vn -1 0 0
vn 0 2.220446E-16 -1
vn 0 2.220446E-16 -1
vn -1 0 0
vn -1 0 0
vn 0 1 2.220446E-16
vn 0 1 2.220446E-16
vn 0 2.220446E-16 -1
vn -1 0 0
vn -1 0 0
vn 0 2.220446E-16 -1
vn 0 2.220446E-16 -1
vn 0 1 2.220446E-16
vn 0 1 2.220446E-16
vn 0 1 2.220446E-16
vn 0 1 2.220446E-16
vn 1 0 0
vn 1 0 0
vn 1 0 0
vn 1 0 0
vn -1 0 0
vn -1 0 0
vn 0 -2.220446E-16 1
vn 0 -2.220446E-16 1
vn 0 2.220446E-16 -1
vn 0 1 2.220446E-16
vn -1 0 0
vn -1 0 0
vn 0 -2.220446E-16 1
vn 0 -2.220446E-16 1
vn 0 -1 -2.220446E-16
vn -1 0 0
vn -1 0 0
vn 0 -2.220446E-16 1
vn 0 -2.220446E-16 1
vn 0 -1 -2.220446E-16
vn 0 -1 -2.220446E-16
vn -1 0 0
vn -1 0 0
vn -1 0 0
vn 0 -2.220446E-16 1
vn 0 -2.220446E-16 1
vn 0 -2.220446E-16 1
vn 0 -1 -2.220446E-16
vn -1 0 0
vn -1 0 0
vn 0 -2.220446E-16 1
vn -1 0 0
vn -1 0 0
vn 0 -2.220446E-16 1
vn 0 -2.220446E-16 1
vn -1 0 0
vn 0 -2.220446E-16 1
vn -1 0 0
vn -1 0 0
vn 0 -2.220446E-16 1
vn 0 -2.220446E-16 1
vn -1 0 0
vn 0 1 2.220446E-16
vn 0 -2.220446E-16 1
vn 0 2.220446E-16 -1
vn 0 2.220446E-16 -1
vn 0 1 2.220446E-16
vn 0 1 2.220446E-16
vn -1 0 0
vn -1 0 0
vn 0 -2.220446E-16 1
vn 0 -2.220446E-16 1
vn 0 1 2.220446E-16
vn 1 0 0
vn 1 0 0
vn -1 0 0
# 238 vertex normals

vt 0.03125 -0.03125 0
vt 0.03125 -0.03125 0
vt 0.03125 -0.03125 0
vt 0.03125 -0.03125 0
vt 0.03125 -0.03125 0
vt 0.03125 -0.03125 0
vt 0.03125 -0.03125 0
vt 0.03125 -0.03125 0
vt 0.03125 -0.03125 0
vt 0.03125 -0.03125 0
vt 0.03125 -0.03125 0
vt 0.03125 -0.03125 0
vt 0.03125 -0.03125 0
vt 0.03125 -0.03125 0
vt 0.03125 -0.03125 0
vt 0.03125 -0.03125 0
vt 0.03125 -0.03125 0
vt 0.03125 -0.03125 0
vt 0.03125 -0.03125 0
vt 0.03125 -0.03125 0
vt 0.03125 -0.03125 0
vt 0.03125 -0.03125 0
vt 0.03125 -0.03125 0
vt 0.03125 -0.03125 0
vt 0.03125 -0.03125 0
vt 0.03125 -0.03125 0
vt 0.03125 -0.03125 0
vt 0.03125 -0.03125 0
vt 0.03125 -0.03125 0
vt 0.03125 -0.03125 0
vt 0.03125 -0.03125 0
vt 0.03125 -0.03125 0
vt 0.03125 -0.03125 0
vt 0.03125 -0.03125 0
vt 0.03125 -0.03125 0
vt 0.03125 -0.03125 0
vt 0.03125 -0.03125 0
vt 0.03125 -0.03125 0
vt 0.03125 -0.03125 0
vt 0.03125 -0.03125 0
vt 0.03125 -0.03125 0
vt 0.28125 -0.03125 0
vt 0.28125 -0.03125 0
vt 0.28125 -0.03125 0
vt 0.28125 -0.03125 0
vt 0.03125 -0.03125 0
vt 0.03125 -0.03125 0
vt 0.03125 -0.03125 0
vt 0.03125 -0.03125 0
vt 0.03125 -0.03125 0
vt 0.03125 -0.03125 0
vt 0.03125 -0.03125 0
vt 0.03125 -0.03125 0
vt 0.03125 -0.03125 0
vt 0.03125 -0.03125 0
vt 0.03125 -0.03125 0
vt 0.03125 -0.03125 0
vt 0.03125 -0.03125 0
vt 0.03125 -0.03125 0
vt 0.03125 -0.03125 0
vt 0.03125 -0.03125 0
vt 0.03125 -0.03125 0
vt 0.03125 -0.03125 0
vt 0.03125 -0.03125 0
vt 0.03125 -0.03125 0
vt 0.03125 -0.03125 0
vt 0.03125 -0.03125 0
vt 0.03125 -0.03125 0
vt 0.03125 -0.03125 0
vt 0.03125 -0.03125 0
vt 0.03125 -0.03125 0
vt 0.03125 -0.03125 0
vt 0.03125 -0.03125 0
vt 0.03125 -0.03125 0
vt 0.03125 -0.03125 0
vt 0.03125 -0.03125 0
vt 0.03125 -0.03125 0
vt 0.03125 -0.03125 0
vt 0.03125 -0.03125 0
vt 0.03125 -0.03125 0
vt 0.03125 -0.03125 0
vt 0.03125 -0.03125 0
vt 0.03125 -0.03125 0
vt 0.03125 -0.03125 0
vt 0.03125 -0.03125 0
vt 0.03125 -0.03125 0
vt 0.03125 -0.03125 0
vt 0.03125 -0.03125 0
vt 0.03125 -0.03125 0
vt 0.03125 -0.03125 0
vt 0.03125 -0.03125 0
vt 0.03125 -0.03125 0
vt 0.03125 -0.03125 0
vt 0.03125 -0.03125 0
vt 0.03125 -0.03125 0
vt 0.03125 -0.03125 0
vt 0.03125 -0.03125 0
vt 0.03125 -0.03125 0
vt 0.03125 -0.03125 0
vt 0.03125 -0.03125 0
vt 0.03125 -0.03125 0
vt 0.03125 -0.03125 0
vt 0.03125 -0.03125 0
vt 0.03125 -0.03125 0
vt 0.03125 -0.03125 0
vt 0.03125 -0.03125 0
vt 0.03125 -0.03125 0
vt 0.03125 -0.03125 0
vt 0.03125 -0.03125 0
vt 0.03125 -0.03125 0
vt 0.03125 -0.03125 0
vt 0.03125 -0.03125 0
vt 0.28125 -0.03125 0
vt 0.28125 -0.03125 0
vt 0.03125 -0.03125 0
vt 0.03125 -0.03125 0
vt 0.03125 -0.03125 0
vt 0.03125 -0.03125 0
vt 0.03125 -0.03125 0
vt 0.03125 -0.03125 0
vt 0.03125 -0.03125 0
vt 0.03125 -0.03125 0
vt 0.03125 -0.03125 0
vt 0.03125 -0.03125 0
vt 0.03125 -0.03125 0
vt 0.03125 -0.03125 0
vt 0.03125 -0.03125 0
vt 0.03125 -0.03125 0
vt 0.03125 -0.03125 0
vt 0.03125 -0.03125 0
vt 0.03125 -0.03125 0
vt 0.03125 -0.03125 0
vt 0.03125 -0.03125 0
vt 0.03125 -0.03125 0
vt 0.03125 -0.03125 0
vt 0.03125 -0.03125 0
vt 0.03125 -0.03125 0
vt 0.03125 -0.03125 0
vt 0.03125 -0.03125 0
vt 0.03125 -0.03125 0
vt 0.03125 -0.03125 0
vt 0.03125 -0.03125 0
vt 0.03125 -0.03125 0
vt 0.03125 -0.03125 0
vt 0.03125 -0.03125 0
vt 0.03125 -0.03125 0
vt 0.03125 -0.03125 0
vt 0.03125 -0.03125 0
vt 0.03125 -0.03125 0
vt 0.03125 -0.03125 0
vt 0.03125 -0.03125 0
vt 0.03125 -0.03125 0
vt 0.03125 -0.03125 0
vt 0.03125 -0.03125 0
vt 0.03125 -0.03125 0
vt 0.03125 -0.03125 0
vt 0.03125 -0.03125 0
vt 0.03125 -0.03125 0
vt 0.03125 -0.03125 0
vt 0.03125 -0.03125 0
vt 0.03125 -0.03125 0
vt 0.03125 -0.03125 0
vt 0.03125 -0.03125 0
vt 0.03125 -0.03125 0
vt 0.03125 -0.03125 0
vt 0.03125 -0.03125 0
vt 0.03125 -0.03125 0
vt 0.03125 -0.03125 0
vt 0.03125 -0.03125 0
vt 0.03125 -0.03125 0
vt 0.03125 -0.03125 0
vt 0.28125 -0.03125 0
vt 0.28125 -0.03125 0
vt 0.03125 -0.03125 0
vt 0.03125 -0.03125 0
vt 0.03125 -0.03125 0
vt 0.03125 -0.03125 0
vt 0.03125 -0.03125 0
vt 0.03125 -0.03125 0
vt 0.03125 -0.03125 0
vt 0.03125 -0.03125 0
vt 0.03125 -0.03125 0
vt 0.03125 -0.03125 0
vt 0.03125 -0.03125 0
vt 0.03125 -0.03125 0
vt 0.03125 -0.03125 0
vt 0.03125 -0.03125 0
vt 0.03125 -0.03125 0
vt 0.03125 -0.03125 0
vt 0.03125 -0.03125 0
vt 0.03125 -0.03125 0
vt 0.03125 -0.03125 0
vt 0.03125 -0.03125 0
vt 0.03125 -0.03125 0
vt 0.03125 -0.03125 0
vt 0.03125 -0.03125 0
vt 0.03125 -0.03125 0
vt 0.03125 -0.03125 0
vt 0.03125 -0.03125 0
vt 0.03125 -0.03125 0
vt 0.03125 -0.03125 0
vt 0.03125 -0.03125 0
vt 0.03125 -0.03125 0
vt 0.03125 -0.03125 0
vt 0.03125 -0.03125 0
vt 0.03125 -0.03125 0
vt 0.03125 -0.03125 0
vt 0.03125 -0.03125 0
vt 0.03125 -0.03125 0
vt 0.03125 -0.03125 0
vt 0.03125 -0.03125 0
vt 0.03125 -0.03125 0
vt 0.03125 -0.03125 0
vt 0.03125 -0.03125 0
vt 0.03125 -0.03125 0
vt 0.03125 -0.03125 0
vt 0.03125 -0.03125 0
vt 0.03125 -0.03125 0
vt 0.03125 -0.03125 0
vt 0.03125 -0.03125 0
vt 0.03125 -0.03125 0
vt 0.03125 -0.03125 0
vt 0.03125 -0.03125 0
vt 0.03125 -0.03125 0
vt 0.28125 -0.03125 0
vt 0.03125 -0.03125 0
vt 0.03125 -0.03125 0
vt 0.03125 -0.03125 0
vt 0.03125 -0.03125 0
vt 0.03125 -0.03125 0
vt 0.03125 -0.03125 0
vt 0.03125 -0.03125 0
vt 0.03125 -0.03125 0
vt 0.03125 -0.03125 0
vt 0.03125 -0.03125 0
vt 0.03125 -0.03125 0
vt 0.03125 -0.03125 0
vt 0.03125 -0.03125 0
# 238 texture coords

usemtl Material.1
s 1
f 1/1/1 2/2/2 3/3/3
f 3/3/3 4/4/4 1/1/1
f 5/5/5 6/6/6 7/7/7
f 7/7/7 8/8/8 5/5/5
f 9/9/9 10/10/10 11/11/11
f 11/11/11 12/12/12 9/9/9
f 13/13/13 4/4/4 14/14/14
f 14/14/14 15/15/15 13/13/13
f 16/16/16 17/17/17 18/18/18
f 18/18/18 19/19/19 16/16/16
f 20/20/20 21/21/21 22/22/22
f 22/22/22 23/23/23 20/20/20
f 24/24/24 25/25/25 26/26/26
f 26/26/26 27/27/27 24/24/24
f 28/28/28 29/29/29 30/30/30
f 30/30/30 17/17/17 28/28/28
f 11/11/11 31/31/31 32/32/32
f 32/32/32 33/33/33 11/11/11
f 15/15/15 14/14/14 34/34/34
f 34/34/34 35/35/35 15/15/15
f 23/23/23 22/22/22 36/36/36
f 36/36/36 37/37/37 23/23/23
f 27/27/27 26/26/26 38/38/38
f 38/38/38 39/39/39 27/27/27
f 33/33/33 32/32/32 40/40/40
f 40/40/40 41/41/41 33/33/33
f 42/42/42 43/43/43 44/44/44
f 44/44/44 45/45/45 42/42/42
f 35/35/35 34/34/34 46/46/46
f 46/46/46 47/47/47 35/35/35
f 37/37/37 36/36/36 48/48/48
f 48/48/48 49/49/49 37/37/37
f 39/39/39 38/38/38 50/50/50
f 50/50/50 51/51/51 39/39/39
f 41/41/41 40/40/40 52/52/52
f 52/52/52 53/53/53 41/41/41
f 47/47/47 46/46/46 54/54/54
f 54/54/54 55/55/55 47/47/47
f 56/56/56 57/57/57 58/58/58
f 58/58/58 59/59/59 56/56/56
f 49/49/49 48/48/48 60/60/60
f 60/60/60 61/61/61 49/49/49
f 62/62/62 63/63/63 64/64/64
f 64/64/64 65/65/65 62/62/62
f 66/66/66 67/67/67 68/68/68
f 68/68/68 69/69/69 66/66/66
f 51/51/51 50/50/50 70/70/70
f 70/70/70 71/71/71 51/51/51
f 58/58/58 72/72/72 73/73/73
f 73/73/73 74/74/74 58/58/58
f 53/53/53 52/52/52 75/75/75
f 75/75/75 76/76/76 53/53/53
f 77/77/77 78/78/78 79/79/79
f 79/79/79 80/80/80 77/77/77
f 81/81/81 5/5/5 8/8/8
f 8/8/8 82/82/82 81/81/81
f 83/83/83 9/9/9 12/12/12
f 12/12/12 84/84/84 83/83/83
f 85/85/85 86/86/86 87/87/87
f 87/87/87 88/88/88 85/85/85
f 89/89/89 90/90/90 91/91/91
f 91/91/91 92/92/92 89/89/89
f 93/93/93 84/84/84 94/94/94
f 94/94/94 95/95/95 93/93/93
f 79/79/79 96/96/96 97/97/97
f 97/97/97 98/98/98 79/79/79
f 91/91/91 16/16/16 19/19/19
f 19/19/19 99/99/99 91/91/91
f 100/100/100 20/20/20 23/23/23
f 23/23/23 101/101/101 100/100/100
f 88/88/88 87/87/87 102/102/102
f 102/102/102 103/103/103 88/88/88
f 95/95/95 94/94/94 104/104/104
f 104/104/104 105/105/105 95/95/95
f 98/98/98 97/97/97 106/106/106
f 106/106/106 107/107/107 98/98/98
f 101/101/101 23/23/23 37/37/37
f 37/37/37 108/108/108 101/101/101
f 103/103/103 102/102/102 109/109/109
f 109/109/109 110/110/110 103/103/103
f 105/105/105 104/104/104 111/111/111
f 111/111/111 112/112/112 105/105/105
f 113/113/113 42/42/42 45/45/45
f 45/45/45 114/114/114 113/113/113
f 107/107/107 106/106/106 115/115/115
f 115/115/115 116/116/116 107/107/107
f 108/108/108 37/37/37 49/49/49
f 49/49/49 117/117/117 108/108/108
f 110/110/110 109/109/109 118/118/118
f 118/118/118 119/119/119 110/110/110
f 120/120/120 121/121/121 122/122/122
f 122/122/122 123/123/123 120/120/120
f 124/124/124 125/125/125 126/126/126
f 126/126/126 127/127/127 124/124/124
f 112/112/112 111/111/111 128/128/128
f 128/128/128 129/129/129 112/112/112
f 116/116/116 115/115/115 130/130/130
f 130/130/130 131/131/131 116/116/116
f 132/132/132 56/56/56 59/59/59
f 59/59/59 125/125/125 132/132/132
f 117/117/117 49/49/49 61/61/61
f 61/61/61 133/133/133 117/117/117
f 134/134/134 135/135/135 63/63/63
f 63/63/63 62/62/62 134/134/134
f 2/2/2 136/136/136 137/137/137
f 137/137/137 3/3/3 2/2/2
f 138/138/138 139/139/139 6/6/6
f 6/6/6 5/5/5 138/138/138
f 140/140/140 141/141/141 142/142/142
f 142/142/142 143/143/143 140/140/140
f 137/137/137 144/144/144 145/145/145
f 145/145/145 146/146/146 137/137/137
f 147/147/147 148/148/148 149/149/149
f 149/149/149 150/150/150 147/147/147
f 151/151/151 152/152/152 153/153/153
f 153/153/153 154/154/154 151/151/151
f 25/25/25 155/155/155 156/156/156
f 156/156/156 26/26/26 25/25/25
f 149/149/149 157/157/157 29/29/29
f 29/29/29 28/28/28 149/149/149
f 142/142/142 158/158/158 159/159/159
f 159/159/159 160/160/160 142/142/142
f 146/146/146 145/145/145 161/161/161
f 161/161/161 162/162/162 146/146/146
f 152/152/152 163/163/163 164/164/164
f 164/164/164 153/153/153 152/152/152
f 26/26/26 156/156/156 165/165/165
f 165/165/165 38/38/38 26/26/26
f 158/158/158 166/166/166 167/167/167
f 167/167/167 159/159/159 158/158/158
f 162/162/162 161/161/161 168/168/168
f 168/168/168 169/169/169 162/162/162
f 163/163/163 170/170/170 171/171/171
f 171/171/171 164/164/164 163/163/163
f 45/45/45 44/44/44 172/172/172
f 172/172/172 173/173/173 45/45/45
f 38/38/38 165/165/165 174/174/174
f 174/174/174 50/50/50 38/38/38
f 166/166/166 175/175/175 176/176/176
f 176/176/176 167/167/167 166/166/166
f 169/169/169 168/168/168 177/177/177
f 177/177/177 178/178/178 169/169/169
f 179/179/179 180/180/180 181/181/181
f 181/181/181 182/182/182 179/179/179
f 183/183/183 184/184/184 185/185/185
f 185/185/185 186/186/186 183/183/183
f 170/170/170 187/187/187 188/188/188
f 188/188/188 171/171/171 170/170/170
f 189/189/189 66/66/66 69/69/69
f 69/69/69 190/190/190 189/189/189
f 50/50/50 174/174/174 191/191/191
f 191/191/191 70/70/70 50/50/50
f 74/74/74 73/73/73 192/192/192
f 192/192/192 180/180/180 74/74/74
f 175/175/175 193/193/193 194/194/194
f 194/194/194 176/176/176 175/175/175
f 195/195/195 77/77/77 80/80/80
f 80/80/80 196/196/196 195/195/195
f 197/197/197 138/138/138 5/5/5
f 5/5/5 81/81/81 197/197/197
f 198/198/198 199/199/199 141/141/141
f 141/141/141 140/140/140 198/198/198
f 200/200/200 85/85/85 88/88/88
f 88/88/88 201/201/201 200/200/200
f 202/202/202 203/203/203 90/90/90
f 90/90/90 89/89/89 202/202/202
f 204/204/204 205/205/205 206/206/206
f 206/206/206 199/199/199 204/204/204
f 207/207/207 196/196/196 208/208/208
f 208/208/208 209/209/209 207/207/207
f 210/210/210 147/147/147 150/150/150
f 150/150/150 203/203/203 210/210/210
f 211/211/211 212/212/212 152/152/152
f 152/152/152 151/151/151 211/211/211
f 201/201/201 88/88/88 103/103/103
f 103/103/103 213/213/213 201/201/201
f 205/205/205 214/214/214 215/215/215
f 215/215/215 206/206/206 205/205/205
f 209/209/209 208/208/208 216/216/216
f 216/216/216 217/217/217 209/209/209
f 212/212/212 218/218/218 163/163/163
f 163/163/163 152/152/152 212/212/212
f 213/213/213 103/103/103 110/110/110
f 110/110/110 219/219/219 213/213/213
f 214/214/214 220/220/220 221/221/221
f 221/221/221 215/215/215 214/214/214
f 217/217/217 216/216/216 222/222/222
f 222/222/222 223/223/223 217/217/217
f 218/218/218 224/224/224 170/170/170
f 170/170/170 163/163/163 218/218/218
f 114/114/114 45/45/45 173/173/173
f 173/173/173 225/225/225 114/114/114
f 219/219/219 110/110/110 119/119/119
f 119/119/119 226/226/226 219/219/219
f 121/121/121 227/227/227 228/228/228
f 228/228/228 122/122/122 121/121/121
f 127/127/127 126/126/126 229/229/229
f 229/229/229 230/230/230 127/127/127
f 220/220/220 231/231/231 232/232/232
f 232/232/232 221/221/221 220/220/220
f 223/223/223 222/222/222 233/233/233
f 233/233/233 234/234/234 223/223/223
f 229/229/229 179/179/179 182/182/182
f 182/182/182 235/235/235 229/229/229
f 236/236/236 183/183/183 186/186/186
f 186/186/186 237/237/237 236/236/236
f 224/224/224 238/238/238 187/187/187
f 187/187/187 170/170/170 224/224/224
#208 polygons

